<svg width="32" height="32" viewBox="0 0 32 32" fill="none" xmlns="http://www.w3.org/2000/svg">
<path fill-rule="evenodd" clip-rule="evenodd" d="M11.84 2.2784C9.19503 2.2784 7.04003 4.4359 7.04003 7.0784C7.04003 7.8209 7.21503 8.5334 7.52003 9.1584L8.66003 8.5984C8.43753 8.1434 8.32003 7.6259 8.32003 7.0784C8.32003 5.1259 9.88503 3.5584 11.84 3.5584C13.79 3.5584 15.36 5.1259 15.36 7.0784H16.64C16.64 4.4334 14.4825 2.2784 11.84 2.2784ZM23.8 5.0784C23.7725 5.0834 23.745 5.0909 23.72 5.0984C23.7075 5.1034 23.6925 5.1109 23.68 5.1184C22.0575 5.5259 20.2 6.4984 19.02 8.6984C17.8975 8.4584 16.75 8.2784 15.52 8.2784C11.88 8.2784 9.05753 9.4109 6.84003 11.1384C5.70753 12.0184 4.82003 13.2284 4.26003 14.7184C4.06253 14.6509 3.80003 14.5409 3.50003 14.3384C2.99753 13.9959 2.56003 13.5259 2.56003 12.6584C2.56003 11.9684 2.88253 11.3909 3.42003 11.1584C3.72003 11.0484 3.89253 10.7384 3.82753 10.4259C3.76253 10.1134 3.47753 9.8984 3.16003 9.9184C3.07753 9.9234 2.99503 9.9434 2.92003 9.9784C1.85753 10.4359 1.28003 11.5384 1.28003 12.6584C1.28003 13.9984 2.06003 14.9084 2.78003 15.3984C3.22503 15.7009 3.60503 15.8509 3.88003 15.9384C3.66253 16.8859 3.57253 17.9359 3.62003 19.0584C3.74003 21.9084 5.67003 23.9984 7.12003 25.1584C7.12753 25.1584 7.13253 25.1584 7.14003 25.1584C7.27003 25.2609 7.31003 25.3209 7.32003 25.3384C7.33003 25.3559 7.36003 25.3159 7.30003 25.4984C7.10753 26.0884 6.74003 26.9784 6.74003 26.9784C6.74003 26.9859 6.74003 26.9909 6.74003 26.9984C6.40003 27.8909 6.85003 28.8984 7.74003 29.2384C7.74003 29.2459 7.74003 29.2509 7.74003 29.2584L9.80003 30.0184C10.6925 30.3584 11.72 29.9109 12.06 29.0184C12.06 29.0184 12.315 28.2984 12.54 27.6984C12.575 27.6084 12.6 27.5859 12.62 27.5584C12.645 27.5609 12.6475 27.5684 12.7 27.5784C13.1075 27.6534 14.0125 27.9184 15.52 27.9184C17.0575 27.9184 17.9525 27.7634 18.36 27.7384C18.44 27.7334 18.4725 27.7384 18.5 27.7384C18.51 27.7559 18.5075 27.7709 18.52 27.7984C18.5225 27.8084 18.5175 27.8084 18.52 27.8184C18.725 28.4309 18.9725 29.0009 18.98 29.0184C18.9825 29.0284 18.995 29.0284 19 29.0384C19.3475 29.9134 20.3375 30.3534 21.22 30.0184L23.28 29.2584C23.28 29.2509 23.28 29.2459 23.28 29.2384C24.1725 28.9009 24.6225 27.8909 24.28 26.9984L23.96 26.1384C23.9425 26.1034 23.9225 26.0709 23.9 26.0384C23.9 26.0384 23.92 26.0359 23.92 26.0384C23.92 26.0409 23.8325 26.0709 24.04 25.9584C25.595 25.1134 26.785 23.8109 27.54 22.2384C27.61 22.0909 27.67 21.9859 27.72 21.9384C27.77 21.8909 27.8 21.8584 28 21.8584H29.04C29.96 21.8584 30.72 21.0984 30.72 20.1784V17.0584C30.72 16.1384 29.9625 15.3784 29.04 15.3784H28C27.8375 15.3784 27.795 15.3659 27.78 15.3584C27.4625 13.5159 26.22 11.2084 23.48 10.0384C23.5125 8.7209 23.8025 7.6784 24.44 5.9584C24.5225 5.7534 24.495 5.5184 24.365 5.3409C24.235 5.1609 24.02 5.0609 23.8 5.0784ZM22.8 6.8784C22.4125 8.0834 22.1375 9.1659 22.16 10.4184C22.1625 10.6909 22.34 10.9334 22.6 11.0184C25.2775 11.9534 26.265 14.0359 26.52 15.6384C26.6175 16.2484 27.2675 16.6584 28 16.6584H29.04C29.265 16.6584 29.44 16.8309 29.44 17.0584V20.1784C29.44 20.4034 29.2675 20.5784 29.04 20.5784H28C27.53 20.5784 27.105 20.7534 26.84 20.9984C26.575 21.2434 26.4575 21.5134 26.38 21.6784C25.73 23.0309 24.755 24.1034 23.44 24.8184C22.9275 25.0959 22.6525 25.6109 22.64 25.9984C22.63 26.3309 22.7425 26.5084 22.78 26.5784H22.76L22.8 26.6784L23.08 27.4584C23.1725 27.6984 23.065 27.9659 22.82 28.0584L20.76 28.8384C20.515 28.9309 20.25 28.8009 20.16 28.5584C20.16 28.5509 20.16 28.5459 20.16 28.5384C20.16 28.5384 19.91 27.9659 19.72 27.3984C19.625 27.1209 19.49 26.8109 19.18 26.6184C18.87 26.4259 18.565 26.4409 18.28 26.4584C17.71 26.4959 16.975 26.6384 15.52 26.6384C14.1475 26.6384 13.47 26.4184 12.92 26.3184C12.645 26.2684 12.3075 26.2234 11.96 26.4184C11.6125 26.6134 11.4825 26.9309 11.36 27.2584C11.14 27.8484 10.86 28.5584 10.86 28.5584C10.7675 28.8009 10.5025 28.9309 10.26 28.8384L8.20003 28.0584C7.95753 27.9659 7.84753 27.7009 7.94003 27.4584C7.95003 27.4309 8.30003 26.5734 8.52003 25.8984C8.66753 25.4434 8.60503 24.9834 8.42003 24.6784C8.23503 24.3734 7.98753 24.2109 7.92003 24.1584C6.62503 23.1234 4.99503 21.2834 4.90003 18.9984C4.76503 15.7559 5.87753 13.4959 7.62003 12.1384C9.64003 10.5659 12.14 9.5584 15.52 9.5584C16.81 9.5584 18.03 9.7159 19.18 9.9984C19.4825 10.0734 19.7925 9.9209 19.92 9.6384C20.6375 8.0559 21.7 7.3559 22.8 6.8784ZM23.34 15.4184C22.6625 15.4184 22.12 15.9634 22.12 16.6384C22.12 17.3159 22.6625 17.8784 23.34 17.8784C24.015 17.8784 24.56 17.3134 24.56 16.6384C24.56 15.9634 24.015 15.4184 23.34 15.4184Z" fill="white"/>
</svg>
